<svg xmlns="http://www.w3.org/2000/svg" version="1.1" xmlns:xlink="http://www.w3.org/1999/xlink" xmlns:svgjs="http://svgjs.com/svgjs" width="512" height="512" x="0" y="0" viewBox="0 0 447.801 447" style="enable-background:new 0 0 512 512" xml:space="preserve" class=""><g><path fill="#ffffff" d="M447.8 202.152a63.616 63.616 0 0 1-18.542 45.114 63.593 63.593 0 0 1-45.035 18.714H63.62A63.654 63.654 0 0 1 0 202.003a2.74 2.74 0 0 0 .012-.25l.097-3.362c.082-40.16 27.461-74.38 65.082-83.028v-.02c.008-54.327 38.047-101.238 91.204-112.46C209.55-8.344 263.309 19.176 285.28 68.863c43.567-6.16 85.7 18.266 102 59.14 33.32 3.54 60.36 34.38 60.43 70.52l.078 3.418c0 .07.012.141.012.211zm0 0" data-original="#00acea" class=""></path></g></svg>