<svg xmlns="http://www.w3.org/2000/svg" version="1.1" xmlns:xlink="http://www.w3.org/1999/xlink" xmlns:svgjs="http://svgjs.com/svgjs" width="512" height="512" x="0" y="0" viewBox="0 0 512 512" style="enable-background:new 0 0 512 512" xml:space="preserve" class=""><g><circle cx="256" cy="256" r="256" fill="#006ca3" transform="rotate(-45 255.972 256.066)" data-original="#4caf50"></circle><path fill="#ffffff" d="M402.29 175.666a11.74 11.74 0 0 0-1.079-.833L262.786 79.908a11.998 11.998 0 0 0-13.573 0l-138.424 94.925c-.374.257-.734.535-1.077.833C99.727 184.33 94 196.85 94 210.016v138.697c0 25.079 20.403 45.482 45.482 45.482h233.035c25.079 0 45.482-20.403 45.482-45.482V210.016c.001-13.165-5.724-25.685-15.709-34.35zm-97.758 84.977 87.348-59.88a21.346 21.346 0 0 1 2.12 9.253v138.697a21.42 21.42 0 0 1-.326 3.596zM256 104.355l117.015 80.242L256 264.815l-117.014-80.217zM118.326 352.308a21.42 21.42 0 0 1-.326-3.596V210.016c0-3.237.744-6.391 2.12-9.253l87.347 59.88zm21.157 17.887c-1.574 0-3.105-.181-4.583-.504l92.655-95.278 21.661 14.849c2.045 1.402 4.415 2.103 6.785 2.103s4.74-.701 6.785-2.103l21.661-14.849 92.655 95.278c-1.479.323-3.01.504-4.583.504z" data-original="#ffffff" class=""></path></g></svg>