<svg xmlns="http://www.w3.org/2000/svg" version="1.1" xmlns:xlink="http://www.w3.org/1999/xlink" xmlns:svgjs="http://svgjs.com/svgjs" width="512" height="512" x="0" y="0" viewBox="0 0 512 512" style="enable-background:new 0 0 512 512" xml:space="preserve" class=""><g><path d="M371 331c-11.028 0-20 8.972-20 20s8.972 20 20 20c11.027 0 20-8.972 20-20s-8.973-20-20-20zM216 231c8.27 0 15-6.729 15-15s-6.73-15-15-15c-8.271 0-15 6.729-15 15s6.729 15 15 15zM236 321c-19.299 0-35 15.701-35 35s15.701 35 35 35 35-15.701 35-35-15.701-35-35-35zM51 411c-5.515 0-10 4.486-10 10s4.485 10 10 10c5.514 0 10-4.486 10-10s-4.486-10-10-10zM106 241c-8.271 0-15 6.729-15 15 0 8.272 6.729 15 15 15s15-6.728 15-15c0-8.271-6.729-15-15-15z" fill="#26a0d5" data-original="#000000" class=""></path><path d="M466.173 300.357c-36.575-4.775-64.554-35.749-65.163-73.111A84.553 84.553 0 0 1 376 231c-46.869 0-85-38.131-85-85 0-20.992 7.789-41.138 21.65-56.641-18.88-4.718-34.124-19.236-39.54-38.236C157.1 47.14 61 140.385 61 256c0 113.037 91.962 205 205 205 96.277 0 179.586-67.232 200.173-160.643zM216 191c13.785 0 25 11.215 25 25s-11.215 25-25 25-25-11.215-25-25 11.215-25 25-25zm-110 90c-13.785 0-25-11.215-25-25s11.215-25 25-25 25 11.215 25 25-11.215 25-25 25zm50 45c-5.523 0-10-4.478-10-10s4.477-10 10-10 10 4.478 10 10-4.477 10-10 10zm0-160c-5.523 0-10-4.477-10-10s4.477-10 10-10 10 4.477 10 10-4.477 10-10 10zm80 235c-24.814 0-45-20.186-45-45s20.186-45 45-45c24.813 0 45 20.186 45 45s-20.187 45-45 45zm70 15c-5.522 0-10-4.478-10-10s4.478-10 10-10c5.523 0 10 4.478 10 10s-4.477 10-10 10zm10-130c-5.522 0-10-4.478-10-10s4.478-10 10-10c5.523 0 10 4.478 10 10s-4.477 10-10 10zm55 95c-16.543 0-30-13.458-30-30s13.457-30 30-30c16.541 0 30 13.458 30 30s-13.459 30-30 30zM66 91c8.271 0 15-6.729 15-15s-6.729-15-15-15-15 6.729-15 15 6.729 15 15 15zM426 141c13.785 0 25-11.215 25-25s-11.215-25-25-25-25 11.215-25 25 11.215 25 25 25z" fill="#26a0d5" data-original="#000000" class=""></path><circle cx="36" cy="136" r="10" fill="#26a0d5" data-original="#000000" class=""></circle><circle cx="336" cy="46" r="10" fill="#26a0d5" data-original="#000000" class=""></circle><circle cx="466" cy="206" r="10" fill="#26a0d5" data-original="#000000" class=""></circle><circle cx="476" cy="396" r="10" fill="#26a0d5" data-original="#000000" class=""></circle><circle cx="416" cy="456" r="10" fill="#26a0d5" data-original="#000000" class=""></circle><circle cx="116" cy="466" r="10" fill="#26a0d5" data-original="#000000" class=""></circle><circle cx="126" cy="46" r="10" fill="#26a0d5" data-original="#000000" class=""></circle></g></svg>