<svg xmlns="http://www.w3.org/2000/svg" version="1.1" xmlns:xlink="http://www.w3.org/1999/xlink" xmlns:svgjs="http://svgjs.com/svgjs" width="512" height="512" x="0" y="0" viewBox="0 0 64 64" style="enable-background:new 0 0 512 512" xml:space="preserve" class=""><g><g fill="#0e5952"><path d="M61.46 37.24a57.248 57.248 0 0 0-4.571-2.113h4.11c.787.019 1.29-.94.82-1.58L43.77 8.017a4.006 4.006 0 0 0-6.54 0l-11.7 16.55-5.25-7.5c-1.492-2.251-5.068-2.254-6.56 0L2.18 33.557c-.47.624.042 1.596.82 1.57H15.41a61.678 61.678 0 0 0-12.999 7.192c-1.03.782.08 2.378 1.177 1.617C16.384 34.1 37.642 29.39 54.467 36.328c-21.58-1.837-40.186 11.507-48.27 22.938-.757 1.032.781 2.256 1.598 1.202 9.522-13.396 30.289-26.005 53.023-21.356 1.104.153 1.629-1.3.642-1.872zM24.3 26.297l-4.82 6.83h-9.397c.353-2.681 1.839-4.42 3.206-4.541.922-.091 1.782.607 2.212 1.026a1 1 0 0 0 1.633-1.072 11.297 11.297 0 0 1-.55-6 10.636 10.636 0 0 1 1.942-4.46c.037.044.08.08.114.127zm2.978 5.451c1.115-5.372 5.853-8.886 10.052-4.87.753.71 2.02-.183 1.59-1.131-2.296-5.055-1.388-12.5 2.84-16.97.14.11.26.24.37.39l16.94 23.96H51.2c-7.544-2.262-16.456-2.715-23.922-1.379z" fill="#ffffff" data-original="#0e5952" class=""></path><path d="M46.16 36.092a1.001 1.001 0 0 0 .127-1.997 54.27 54.27 0 0 0-4.951-.083c-1.309.059-1.26 2.022.06 2a50.962 50.962 0 0 1 4.765.08zM32.88 36.976a51.697 51.697 0 0 1 4.712-.71c1.3-.163 1.11-2.086-.207-1.99-1.633.169-3.28.418-4.895.74a1 1 0 1 0 .39 1.96zM24.284 39.403c1.633-.44 3.236-1.143 4.887-1.544 1.259-.372.74-2.253-.535-1.928-1.58.438-3.163.955-4.705 1.537a1 1 0 0 0 .353 1.935zM9.708 47.752a59.763 59.763 0 0 1 3.89-2.779c1.09-.72.003-2.383-1.096-1.673a62.25 62.25 0 0 0-4.02 2.872c-1.03.807.192 2.377 1.226 1.58zM16.371 43.113c1.631-.551 3.118-1.67 4.743-2.304 1.184-.568.371-2.346-.834-1.818a58.09 58.09 0 0 0-4.402 2.252c-.893.466-.494 1.908.493 1.87z" fill="#ffffff" data-original="#0e5952" class=""></path></g><path fill="#00609d" d="M25 3.128c-3.309 0-6 2.691-6 6 .281 7.94 11.72 7.939 12 0 0-3.309-2.692-6-6-6z" data-original="#f2be22" class=""></path></g></svg>