<svg xmlns="http://www.w3.org/2000/svg" version="1.1" xmlns:xlink="http://www.w3.org/1999/xlink" xmlns:svgjs="http://svgjs.com/svgjs" width="512" height="512" x="0" y="0" viewBox="0 0 64 64" style="enable-background:new 0 0 512 512" xml:space="preserve" class=""><g><path d="M42.254 6.4A20.447 20.447 0 0 0 32 4a20.4 20.4 0 0 0-10.509 2.544 20.415 20.415 0 0 0-10.064 17.878c.243 8.147 5.435 15.665 10.053 22.207A156.735 156.735 0 0 0 32 60c6.513-7.378 12.762-15.47 17.26-24.244 1.889-3.686 3.319-7.392 3.319-11.5A20.544 20.544 0 0 0 42.254 6.4zM32 41.5a16.75 16.75 0 1 1 16.75-16.75A16.75 16.75 0 0 1 32 41.5z" fill="#ffffff" data-original="#000000" class=""></path><path d="M29 27v-4.9s10.3-1.146 12.961 4.323a.414.414 0 0 1-.4.577z" fill="#004589" data-original="#000000" class=""></path><circle cx="26" cy="24.025" r="2" fill="#004589" data-original="#000000" class=""></circle><path d="M21.5 17a1.5 1.5 0 0 1 1.5 1.5v13.451h-3V18.5a1.5 1.5 0 0 1 1.5-1.5zM42.5 23a1.5 1.5 0 0 1 1.5 1.5V32h-3v-7.5a1.5 1.5 0 0 1 1.5-1.5zM23 29.984V27h18v2.984z" fill="#ffffff" data-original="#000000" class=""></path></g></svg>